<mxfile host="app.diagrams.net" modified="2023-04-04T19:53:06.971Z" agent="Mozilla/5.0 (Macintosh; Intel Mac OS X 10_15_7) AppleWebKit/605.1.15 (KHTML, like Gecko) Version/16.3 Safari/605.1.15" etag="GGP0_Rmm8qBH60gdP9pA" version="21.1.4" type="github">
  <diagram name="Page-1" id="KO6MCzsL1JKN5xg4YTdc">
    <mxGraphModel dx="1797" dy="2104" grid="1" gridSize="10" guides="1" tooltips="1" connect="1" arrows="1" fold="1" page="1" pageScale="1" pageWidth="827" pageHeight="1169" math="0" shadow="0">
      <root>
        <mxCell id="0" />
        <mxCell id="1" parent="0" />
        <mxCell id="swfVaft4NcOQjdmXPARg-1" value="Actor/Gestore" style="shape=umlActor;verticalLabelPosition=bottom;verticalAlign=top;html=1;outlineConnect=0;" parent="1" vertex="1">
          <mxGeometry x="70" y="150" width="30" height="60" as="geometry" />
        </mxCell>
        <mxCell id="swfVaft4NcOQjdmXPARg-2" value="" style="rounded=0;whiteSpace=wrap;html=1;align=center;" parent="1" vertex="1">
          <mxGeometry x="140" y="-520" width="1712" height="2130" as="geometry" />
        </mxCell>
        <mxCell id="swfVaft4NcOQjdmXPARg-3" value="Sistema" style="text;html=1;strokeColor=none;fillColor=none;align=center;verticalAlign=middle;whiteSpace=wrap;rounded=0;" parent="1" vertex="1">
          <mxGeometry x="853.5" y="-510" width="60" height="30" as="geometry" />
        </mxCell>
        <mxCell id="swfVaft4NcOQjdmXPARg-4" value="" style="endArrow=none;html=1;rounded=0;exitX=1;exitY=0.3333333333333333;exitDx=0;exitDy=0;exitPerimeter=0;entryX=0;entryY=0.5;entryDx=0;entryDy=0;" parent="1" source="swfVaft4NcOQjdmXPARg-1" target="swfVaft4NcOQjdmXPARg-5" edge="1">
          <mxGeometry width="50" height="50" relative="1" as="geometry">
            <mxPoint x="170" y="50" as="sourcePoint" />
            <mxPoint x="290" y="-11" as="targetPoint" />
          </mxGeometry>
        </mxCell>
        <mxCell id="swfVaft4NcOQjdmXPARg-5" value="Inizializza ristorante" style="ellipse;whiteSpace=wrap;html=1;" parent="1" vertex="1">
          <mxGeometry x="250" y="-50" width="120" height="40" as="geometry" />
        </mxCell>
        <mxCell id="swfVaft4NcOQjdmXPARg-6" value="Visualizza stato ristorante" style="ellipse;whiteSpace=wrap;html=1;" parent="1" vertex="1">
          <mxGeometry x="250" y="320" width="120" height="40" as="geometry" />
        </mxCell>
        <mxCell id="swfVaft4NcOQjdmXPARg-7" value="" style="endArrow=none;html=1;rounded=0;entryX=0;entryY=0.5;entryDx=0;entryDy=0;exitX=1;exitY=0.3333333333333333;exitDx=0;exitDy=0;exitPerimeter=0;" parent="1" source="swfVaft4NcOQjdmXPARg-1" target="swfVaft4NcOQjdmXPARg-6" edge="1">
          <mxGeometry width="50" height="50" relative="1" as="geometry">
            <mxPoint x="120" y="170" as="sourcePoint" />
            <mxPoint x="450" y="110" as="targetPoint" />
          </mxGeometry>
        </mxCell>
        <mxCell id="swfVaft4NcOQjdmXPARg-8" value="&amp;lt;&amp;lt;include&amp;gt;&amp;gt;" style="endArrow=classic;html=1;rounded=0;exitX=0.5;exitY=0;exitDx=0;exitDy=0;entryX=0;entryY=1;entryDx=0;entryDy=0;dashed=1;" parent="1" source="swfVaft4NcOQjdmXPARg-5" target="swfVaft4NcOQjdmXPARg-9" edge="1">
          <mxGeometry width="50" height="50" relative="1" as="geometry">
            <mxPoint x="410" y="240" as="sourcePoint" />
            <mxPoint x="460" y="190" as="targetPoint" />
          </mxGeometry>
        </mxCell>
        <mxCell id="swfVaft4NcOQjdmXPARg-9" value="inserimento carico di lavoro&lt;br&gt;per persona" style="ellipse;whiteSpace=wrap;html=1;" parent="1" vertex="1">
          <mxGeometry x="414" y="-190" width="146" height="65" as="geometry" />
        </mxCell>
        <mxCell id="swfVaft4NcOQjdmXPARg-10" value="&amp;lt;&amp;lt;include&amp;gt;&amp;gt;" style="endArrow=classic;html=1;rounded=0;dashed=1;" parent="1" target="swfVaft4NcOQjdmXPARg-11" edge="1">
          <mxGeometry width="50" height="50" relative="1" as="geometry">
            <mxPoint x="370" y="-30" as="sourcePoint" />
            <mxPoint x="460" y="190" as="targetPoint" />
          </mxGeometry>
        </mxCell>
        <mxCell id="swfVaft4NcOQjdmXPARg-11" value="inserimento numero di posti a sedere disponibili" style="ellipse;whiteSpace=wrap;html=1;" parent="1" vertex="1">
          <mxGeometry x="515" y="-55" width="188.75" height="50" as="geometry" />
        </mxCell>
        <mxCell id="swfVaft4NcOQjdmXPARg-14" value="&amp;lt;&amp;lt;include&amp;gt;&amp;gt;" style="endArrow=classic;html=1;rounded=0;dashed=1;" parent="1" target="swfVaft4NcOQjdmXPARg-15" edge="1">
          <mxGeometry width="50" height="50" relative="1" as="geometry">
            <mxPoint x="360" y="-40" as="sourcePoint" />
            <mxPoint x="460" y="190" as="targetPoint" />
          </mxGeometry>
        </mxCell>
        <mxCell id="swfVaft4NcOQjdmXPARg-15" value="insieme delle&lt;br&gt;bevande" style="ellipse;whiteSpace=wrap;html=1;" parent="1" vertex="1">
          <mxGeometry x="580" y="-110" width="130" height="40" as="geometry" />
        </mxCell>
        <mxCell id="swfVaft4NcOQjdmXPARg-16" value="" style="endArrow=classic;html=1;rounded=0;dashed=1;exitX=0.5;exitY=1;exitDx=0;exitDy=0;" parent="1" source="swfVaft4NcOQjdmXPARg-5" target="swfVaft4NcOQjdmXPARg-17" edge="1">
          <mxGeometry width="50" height="50" relative="1" as="geometry">
            <mxPoint x="410" y="240" as="sourcePoint" />
            <mxPoint x="460" y="190" as="targetPoint" />
          </mxGeometry>
        </mxCell>
        <mxCell id="swfVaft4NcOQjdmXPARg-18" value="&amp;lt;&amp;lt;include&amp;gt;&amp;gt;" style="edgeLabel;html=1;align=center;verticalAlign=middle;resizable=0;points=[];" parent="swfVaft4NcOQjdmXPARg-16" vertex="1" connectable="0">
          <mxGeometry x="-0.0304" y="4" relative="1" as="geometry">
            <mxPoint as="offset" />
          </mxGeometry>
        </mxCell>
        <mxCell id="swfVaft4NcOQjdmXPARg-17" value="insieme dei generi (alimentari) extra" style="ellipse;whiteSpace=wrap;html=1;" parent="1" vertex="1">
          <mxGeometry x="250" y="30" width="120" height="50" as="geometry" />
        </mxCell>
        <mxCell id="swfVaft4NcOQjdmXPARg-22" value="&amp;lt;&amp;lt;include&amp;gt;&amp;gt;" style="endArrow=classic;html=1;rounded=0;dashed=1;exitX=1;exitY=0;exitDx=0;exitDy=0;" parent="1" source="1rC0PbZvvQItYyWGk3Om-73" target="swfVaft4NcOQjdmXPARg-23" edge="1">
          <mxGeometry x="-0.0081" width="50" height="50" relative="1" as="geometry">
            <mxPoint x="410" y="240" as="sourcePoint" />
            <mxPoint x="460" y="190" as="targetPoint" />
            <mxPoint as="offset" />
          </mxGeometry>
        </mxCell>
        <mxCell id="swfVaft4NcOQjdmXPARg-23" value="inserimento consumo&lt;br&gt;pro capite&amp;nbsp;della bevanda&lt;br&gt;(in litri)" style="ellipse;whiteSpace=wrap;html=1;" parent="1" vertex="1">
          <mxGeometry x="980" y="-160" width="173" height="60" as="geometry" />
        </mxCell>
        <mxCell id="swfVaft4NcOQjdmXPARg-30" value="" style="endArrow=classic;html=1;rounded=0;exitX=0.5;exitY=0;exitDx=0;exitDy=0;dashed=1;" parent="1" source="swfVaft4NcOQjdmXPARg-6" target="swfVaft4NcOQjdmXPARg-31" edge="1">
          <mxGeometry width="50" height="50" relative="1" as="geometry">
            <mxPoint x="410" y="240" as="sourcePoint" />
            <mxPoint x="460" y="190" as="targetPoint" />
          </mxGeometry>
        </mxCell>
        <mxCell id="swfVaft4NcOQjdmXPARg-32" value="&amp;lt;&amp;lt;include&amp;gt;&amp;gt;" style="edgeLabel;html=1;align=center;verticalAlign=middle;resizable=0;points=[];" parent="swfVaft4NcOQjdmXPARg-30" vertex="1" connectable="0">
          <mxGeometry x="-0.3109" relative="1" as="geometry">
            <mxPoint as="offset" />
          </mxGeometry>
        </mxCell>
        <mxCell id="swfVaft4NcOQjdmXPARg-31" value="stampa carico lavoro per persona" style="ellipse;whiteSpace=wrap;html=1;" parent="1" vertex="1">
          <mxGeometry x="325" y="220" width="130" height="50" as="geometry" />
        </mxCell>
        <mxCell id="swfVaft4NcOQjdmXPARg-33" value="&amp;lt;&amp;lt;include&amp;gt;&amp;gt;" style="endArrow=classic;html=1;rounded=0;dashed=1;" parent="1" source="swfVaft4NcOQjdmXPARg-6" target="swfVaft4NcOQjdmXPARg-34" edge="1">
          <mxGeometry width="50" height="50" relative="1" as="geometry">
            <mxPoint x="410" y="240" as="sourcePoint" />
            <mxPoint x="460" y="190" as="targetPoint" />
          </mxGeometry>
        </mxCell>
        <mxCell id="swfVaft4NcOQjdmXPARg-34" value="stampa insieme&amp;nbsp;&lt;br&gt;delle bevande" style="ellipse;whiteSpace=wrap;html=1;" parent="1" vertex="1">
          <mxGeometry x="550" y="250" width="110" height="50" as="geometry" />
        </mxCell>
        <mxCell id="swfVaft4NcOQjdmXPARg-37" value="&amp;lt;&amp;lt;include&amp;gt;&amp;gt;" style="endArrow=classic;html=1;rounded=0;dashed=1;exitX=1;exitY=0.5;exitDx=0;exitDy=0;" parent="1" source="swfVaft4NcOQjdmXPARg-34" target="swfVaft4NcOQjdmXPARg-38" edge="1">
          <mxGeometry width="50" height="50" relative="1" as="geometry">
            <mxPoint x="360" y="335" as="sourcePoint" />
            <mxPoint x="503" y="281" as="targetPoint" />
          </mxGeometry>
        </mxCell>
        <mxCell id="swfVaft4NcOQjdmXPARg-38" value="stampa consumo pro capite di bevande" style="ellipse;whiteSpace=wrap;html=1;" parent="1" vertex="1">
          <mxGeometry x="736.5" y="250" width="133.5" height="50" as="geometry" />
        </mxCell>
        <mxCell id="swfVaft4NcOQjdmXPARg-40" value="&amp;lt;&amp;lt;include&amp;gt;&amp;gt;" style="endArrow=classic;html=1;rounded=0;dashed=1;exitX=1;exitY=0.5;exitDx=0;exitDy=0;" parent="1" source="swfVaft4NcOQjdmXPARg-6" target="swfVaft4NcOQjdmXPARg-41" edge="1">
          <mxGeometry width="50" height="50" relative="1" as="geometry">
            <mxPoint x="370" y="345" as="sourcePoint" />
            <mxPoint x="513" y="291" as="targetPoint" />
          </mxGeometry>
        </mxCell>
        <mxCell id="swfVaft4NcOQjdmXPARg-41" value="stampa numero di posti a sedere disponibili" style="ellipse;whiteSpace=wrap;html=1;" parent="1" vertex="1">
          <mxGeometry x="481.5" y="315.5" width="158.5" height="49" as="geometry" />
        </mxCell>
        <mxCell id="swfVaft4NcOQjdmXPARg-42" value="&amp;lt;&amp;lt;include&amp;gt;&amp;gt;" style="endArrow=classic;html=1;rounded=0;dashed=1;exitX=1;exitY=1;exitDx=0;exitDy=0;" parent="1" source="swfVaft4NcOQjdmXPARg-6" target="swfVaft4NcOQjdmXPARg-43" edge="1">
          <mxGeometry width="50" height="50" relative="1" as="geometry">
            <mxPoint x="380" y="355" as="sourcePoint" />
            <mxPoint x="523" y="301" as="targetPoint" />
          </mxGeometry>
        </mxCell>
        <mxCell id="swfVaft4NcOQjdmXPARg-43" value="stampa insieme dei generi (alimentari) extra" style="ellipse;whiteSpace=wrap;html=1;" parent="1" vertex="1">
          <mxGeometry x="460" y="390" width="180" height="40" as="geometry" />
        </mxCell>
        <mxCell id="swfVaft4NcOQjdmXPARg-44" value="&amp;lt;&amp;lt;include&amp;gt;&amp;gt;" style="endArrow=classic;html=1;rounded=0;dashed=1;exitX=1;exitY=0.5;exitDx=0;exitDy=0;" parent="1" source="swfVaft4NcOQjdmXPARg-43" target="swfVaft4NcOQjdmXPARg-45" edge="1">
          <mxGeometry width="50" height="50" relative="1" as="geometry">
            <mxPoint x="390" y="365" as="sourcePoint" />
            <mxPoint x="533" y="311" as="targetPoint" />
          </mxGeometry>
        </mxCell>
        <mxCell id="swfVaft4NcOQjdmXPARg-45" value="stampa consumo pro capite di generi (alimentari) extra" style="ellipse;whiteSpace=wrap;html=1;" parent="1" vertex="1">
          <mxGeometry x="750" y="385" width="190" height="50" as="geometry" />
        </mxCell>
        <mxCell id="swfVaft4NcOQjdmXPARg-46" value="&amp;lt;&amp;lt;include&amp;gt;&amp;gt;" style="endArrow=classic;html=1;rounded=0;dashed=1;exitX=0.636;exitY=0.983;exitDx=0;exitDy=0;exitPerimeter=0;" parent="1" source="swfVaft4NcOQjdmXPARg-6" target="swfVaft4NcOQjdmXPARg-47" edge="1">
          <mxGeometry width="50" height="50" relative="1" as="geometry">
            <mxPoint x="400" y="375" as="sourcePoint" />
            <mxPoint x="543" y="321" as="targetPoint" />
          </mxGeometry>
        </mxCell>
        <mxCell id="swfVaft4NcOQjdmXPARg-47" value="stampa corrispondenza piatto-ricetta" style="ellipse;whiteSpace=wrap;html=1;" parent="1" vertex="1">
          <mxGeometry x="479.25" y="469" width="180" height="60" as="geometry" />
        </mxCell>
        <mxCell id="swfVaft4NcOQjdmXPARg-48" value="&amp;lt;&amp;lt;include&amp;gt;&amp;gt;" style="endArrow=classic;html=1;rounded=0;dashed=1;exitX=0.5;exitY=1;exitDx=0;exitDy=0;" parent="1" source="swfVaft4NcOQjdmXPARg-6" target="swfVaft4NcOQjdmXPARg-49" edge="1">
          <mxGeometry width="50" height="50" relative="1" as="geometry">
            <mxPoint x="410" y="385" as="sourcePoint" />
            <mxPoint x="553" y="331" as="targetPoint" />
          </mxGeometry>
        </mxCell>
        <mxCell id="swfVaft4NcOQjdmXPARg-49" value="stampa denominazione e periodo di validità di ciascun piatto" style="ellipse;whiteSpace=wrap;html=1;" parent="1" vertex="1">
          <mxGeometry x="218" y="470" width="227" height="59" as="geometry" />
        </mxCell>
        <mxCell id="swfVaft4NcOQjdmXPARg-50" value="" style="endArrow=classic;html=1;rounded=0;dashed=1;" parent="1" source="swfVaft4NcOQjdmXPARg-5" target="swfVaft4NcOQjdmXPARg-51" edge="1">
          <mxGeometry width="50" height="50" relative="1" as="geometry">
            <mxPoint x="420" y="395" as="sourcePoint" />
            <mxPoint x="563" y="341" as="targetPoint" />
          </mxGeometry>
        </mxCell>
        <mxCell id="swfVaft4NcOQjdmXPARg-52" value="&amp;lt;&amp;lt;include&amp;gt;&amp;gt;" style="edgeLabel;html=1;align=center;verticalAlign=middle;resizable=0;points=[];" parent="swfVaft4NcOQjdmXPARg-50" vertex="1" connectable="0">
          <mxGeometry x="0.5315" y="-2" relative="1" as="geometry">
            <mxPoint as="offset" />
          </mxGeometry>
        </mxCell>
        <mxCell id="swfVaft4NcOQjdmXPARg-51" value="creazione/rimozione&lt;br&gt;di una ricetta" style="ellipse;whiteSpace=wrap;html=1;" parent="1" vertex="1">
          <mxGeometry x="597.5" y="-190" width="130" height="50" as="geometry" />
        </mxCell>
        <mxCell id="swfVaft4NcOQjdmXPARg-53" value="" style="endArrow=classic;html=1;rounded=0;dashed=1;exitX=0.303;exitY=0.067;exitDx=0;exitDy=0;exitPerimeter=0;" parent="1" source="swfVaft4NcOQjdmXPARg-5" target="swfVaft4NcOQjdmXPARg-55" edge="1">
          <mxGeometry width="50" height="50" relative="1" as="geometry">
            <mxPoint x="354" y="-36" as="sourcePoint" />
            <mxPoint x="624" y="-166" as="targetPoint" />
          </mxGeometry>
        </mxCell>
        <mxCell id="swfVaft4NcOQjdmXPARg-54" value="&amp;lt;&amp;lt;include&amp;gt;&amp;gt;" style="edgeLabel;html=1;align=center;verticalAlign=middle;resizable=0;points=[];" parent="swfVaft4NcOQjdmXPARg-53" vertex="1" connectable="0">
          <mxGeometry x="0.5315" y="-2" relative="1" as="geometry">
            <mxPoint as="offset" />
          </mxGeometry>
        </mxCell>
        <mxCell id="swfVaft4NcOQjdmXPARg-55" value="creazione/rimozione&lt;br&gt;di menù tematici" style="ellipse;whiteSpace=wrap;html=1;" parent="1" vertex="1">
          <mxGeometry x="334" y="-250" width="160" height="60" as="geometry" />
        </mxCell>
        <mxCell id="swfVaft4NcOQjdmXPARg-56" value="" style="endArrow=classic;html=1;rounded=0;dashed=1;exitX=0.75;exitY=0.25;exitDx=0;exitDy=0;exitPerimeter=0;" parent="1" source="swfVaft4NcOQjdmXPARg-6" target="swfVaft4NcOQjdmXPARg-58" edge="1">
          <mxGeometry width="50" height="50" relative="1" as="geometry">
            <mxPoint x="364" y="-26" as="sourcePoint" />
            <mxPoint x="634" y="-156" as="targetPoint" />
          </mxGeometry>
        </mxCell>
        <mxCell id="swfVaft4NcOQjdmXPARg-57" value="&amp;lt;&amp;lt;include&amp;gt;&amp;gt;" style="edgeLabel;html=1;align=center;verticalAlign=middle;resizable=0;points=[];" parent="swfVaft4NcOQjdmXPARg-56" vertex="1" connectable="0">
          <mxGeometry x="0.5315" y="-2" relative="1" as="geometry">
            <mxPoint as="offset" />
          </mxGeometry>
        </mxCell>
        <mxCell id="swfVaft4NcOQjdmXPARg-58" value="stampa ricette" style="ellipse;whiteSpace=wrap;html=1;" parent="1" vertex="1">
          <mxGeometry x="540" y="180" width="110" height="40" as="geometry" />
        </mxCell>
        <mxCell id="swfVaft4NcOQjdmXPARg-59" value="" style="endArrow=classic;html=1;rounded=0;dashed=1;exitX=0.25;exitY=0.25;exitDx=0;exitDy=0;exitPerimeter=0;" parent="1" source="swfVaft4NcOQjdmXPARg-6" target="swfVaft4NcOQjdmXPARg-61" edge="1">
          <mxGeometry width="50" height="50" relative="1" as="geometry">
            <mxPoint x="374" y="-16" as="sourcePoint" />
            <mxPoint x="644" y="-146" as="targetPoint" />
          </mxGeometry>
        </mxCell>
        <mxCell id="swfVaft4NcOQjdmXPARg-60" value="&amp;lt;&amp;lt;include&amp;gt;&amp;gt;" style="edgeLabel;html=1;align=center;verticalAlign=middle;resizable=0;points=[];" parent="swfVaft4NcOQjdmXPARg-59" vertex="1" connectable="0">
          <mxGeometry x="0.5315" y="-2" relative="1" as="geometry">
            <mxPoint as="offset" />
          </mxGeometry>
        </mxCell>
        <mxCell id="swfVaft4NcOQjdmXPARg-61" value="stampa menù tematici" style="ellipse;whiteSpace=wrap;html=1;" parent="1" vertex="1">
          <mxGeometry x="170" y="174" width="156" height="46" as="geometry" />
        </mxCell>
        <mxCell id="25" value="" style="edgeStyle=none;rounded=0;orthogonalLoop=1;jettySize=auto;html=1;endArrow=none;endFill=0;exitX=1;exitY=0.3333333333333333;exitDx=0;exitDy=0;exitPerimeter=0;" parent="1" source="2" target="24" edge="1">
          <mxGeometry relative="1" as="geometry" />
        </mxCell>
        <mxCell id="32" value="" style="edgeStyle=none;rounded=0;orthogonalLoop=1;jettySize=auto;html=1;endArrow=none;endFill=0;startArrow=none;startFill=0;exitX=1;exitY=0.3333333333333333;exitDx=0;exitDy=0;exitPerimeter=0;" parent="1" source="2" target="31" edge="1">
          <mxGeometry relative="1" as="geometry" />
        </mxCell>
        <mxCell id="2" value="Actor/Addetto" style="shape=umlActor;verticalLabelPosition=bottom;verticalAlign=top;html=1;outlineConnect=0;" parent="1" vertex="1">
          <mxGeometry x="70" y="810" width="30" height="60" as="geometry" />
        </mxCell>
        <mxCell id="12" value="&amp;lt;&amp;lt;include&amp;gt;&amp;gt;" style="rounded=0;orthogonalLoop=1;jettySize=auto;endArrow=classic;endFill=1;dashed=1;html=1;" parent="1" source="7" target="11" edge="1">
          <mxGeometry relative="1" as="geometry" />
        </mxCell>
        <mxCell id="16" value="&amp;lt;&amp;lt;include&amp;gt;&amp;gt;" style="edgeStyle=none;rounded=0;orthogonalLoop=1;jettySize=auto;html=1;dashed=1;endArrow=classic;endFill=1;" parent="1" source="7" target="15" edge="1">
          <mxGeometry relative="1" as="geometry" />
        </mxCell>
        <mxCell id="18" value="&amp;lt;&amp;lt;include&amp;gt;&amp;gt;" style="edgeStyle=none;rounded=0;orthogonalLoop=1;jettySize=auto;html=1;dashed=1;endArrow=classic;endFill=1;" parent="1" source="7" target="17" edge="1">
          <mxGeometry relative="1" as="geometry" />
        </mxCell>
        <mxCell id="21" value="&amp;lt;&amp;lt;include&amp;gt;&amp;gt;" style="edgeStyle=none;rounded=0;orthogonalLoop=1;jettySize=auto;html=1;dashed=1;endArrow=classic;endFill=1;" parent="1" source="7" target="20" edge="1">
          <mxGeometry relative="1" as="geometry" />
        </mxCell>
        <mxCell id="28" value="&amp;lt;&amp;lt;include&amp;gt;&amp;gt;" style="edgeStyle=none;rounded=0;orthogonalLoop=1;jettySize=auto;html=1;dashed=1;endArrow=classic;endFill=1;" parent="1" source="7" target="27" edge="1">
          <mxGeometry relative="1" as="geometry" />
        </mxCell>
        <mxCell id="7" value="inserisci prenotazione" style="ellipse;whiteSpace=wrap;html=1;verticalAlign=middle;" parent="1" vertex="1">
          <mxGeometry x="482.75" y="800" width="120" height="60" as="geometry" />
        </mxCell>
        <mxCell id="11" value="chiedi nome prenotazione" style="ellipse;whiteSpace=wrap;html=1;" parent="1" vertex="1">
          <mxGeometry x="560" y="650" width="120" height="60" as="geometry" />
        </mxCell>
        <mxCell id="15" value="chiedi cover prenotazione" style="ellipse;whiteSpace=wrap;html=1;" parent="1" vertex="1">
          <mxGeometry x="718.5" y="690" width="120" height="60" as="geometry" />
        </mxCell>
        <mxCell id="17" value="chiedi nome menu/piatto" style="ellipse;whiteSpace=wrap;html=1;verticalAlign=middle;" parent="1" vertex="1">
          <mxGeometry x="750" y="800" width="120" height="60" as="geometry" />
        </mxCell>
        <mxCell id="20" value="chiedi cover menu/piatto" style="ellipse;whiteSpace=wrap;html=1;verticalAlign=middle;" parent="1" vertex="1">
          <mxGeometry x="685" y="880" width="120" height="60" as="geometry" />
        </mxCell>
        <mxCell id="26" value="&amp;lt;&amp;lt;include&amp;gt;&amp;gt;" style="edgeStyle=none;rounded=0;orthogonalLoop=1;jettySize=auto;html=1;exitX=1;exitY=0.5;exitDx=0;exitDy=0;entryX=0;entryY=0.5;entryDx=0;entryDy=0;endArrow=classic;endFill=1;dashed=1;" parent="1" source="24" target="7" edge="1">
          <mxGeometry relative="1" as="geometry" />
        </mxCell>
        <mxCell id="24" value="aggiorna agenda" style="ellipse;whiteSpace=wrap;html=1;verticalAlign=middle;" parent="1" vertex="1">
          <mxGeometry x="228" y="800" width="120" height="60" as="geometry" />
        </mxCell>
        <mxCell id="27" value="salva in archivio prenotazioni" style="ellipse;whiteSpace=wrap;html=1;verticalAlign=middle;" parent="1" vertex="1">
          <mxGeometry x="550" y="940" width="120" height="60" as="geometry" />
        </mxCell>
        <mxCell id="31" value="salva in archivio prenotazioni" style="ellipse;whiteSpace=wrap;html=1;verticalAlign=middle;" parent="1" vertex="1">
          <mxGeometry x="228" y="920" width="120" height="60" as="geometry" />
        </mxCell>
        <mxCell id="33" value="&lt;div style=&quot;&quot;&gt;&lt;span style=&quot;background-color: initial;&quot;&gt;l&#39;addetto potrà salvare le prenotazioni nell&#39;archivio sia durante la fase di inserimento, ma anche separatamente mediante l&#39;apposita voce&lt;/span&gt;&lt;/div&gt;" style="shape=note2;boundedLbl=1;whiteSpace=wrap;html=1;size=25;verticalAlign=top;align=center;" parent="1" vertex="1">
          <mxGeometry x="930" y="870" width="220" height="120" as="geometry" />
        </mxCell>
        <mxCell id="1rC0PbZvvQItYyWGk3Om-33" value="&amp;lt;&amp;lt;include&amp;gt;&amp;gt;" style="endArrow=classic;html=1;rounded=0;dashed=1;exitX=1;exitY=0;exitDx=0;exitDy=0;" parent="1" source="swfVaft4NcOQjdmXPARg-51" target="1rC0PbZvvQItYyWGk3Om-34" edge="1">
          <mxGeometry x="-0.0204" width="50" height="50" relative="1" as="geometry">
            <mxPoint x="722.5" y="-195" as="sourcePoint" />
            <mxPoint x="577.5" y="85" as="targetPoint" />
            <mxPoint as="offset" />
          </mxGeometry>
        </mxCell>
        <mxCell id="1rC0PbZvvQItYyWGk3Om-34" value="creazione" style="ellipse;whiteSpace=wrap;html=1;" parent="1" vertex="1">
          <mxGeometry x="742" y="-290" width="85.5" height="40" as="geometry" />
        </mxCell>
        <mxCell id="1rC0PbZvvQItYyWGk3Om-36" value="&amp;lt;&amp;lt;include&amp;gt;&amp;gt;" style="endArrow=classic;html=1;rounded=0;dashed=1;exitX=1;exitY=0.5;exitDx=0;exitDy=0;" parent="1" source="swfVaft4NcOQjdmXPARg-51" target="1rC0PbZvvQItYyWGk3Om-37" edge="1">
          <mxGeometry x="-0.0204" width="50" height="50" relative="1" as="geometry">
            <mxPoint x="718.5" y="-161.5" as="sourcePoint" />
            <mxPoint x="647" y="155" as="targetPoint" />
            <mxPoint as="offset" />
          </mxGeometry>
        </mxCell>
        <mxCell id="1rC0PbZvvQItYyWGk3Om-37" value="rimozione" style="ellipse;whiteSpace=wrap;html=1;" parent="1" vertex="1">
          <mxGeometry x="811.5" y="-215" width="85.5" height="40" as="geometry" />
        </mxCell>
        <mxCell id="1rC0PbZvvQItYyWGk3Om-38" value="&amp;lt;&amp;lt;include&amp;gt;&amp;gt;" style="endArrow=classic;html=1;rounded=0;dashed=1;exitX=0.5;exitY=0;exitDx=0;exitDy=0;" parent="1" source="swfVaft4NcOQjdmXPARg-55" target="1rC0PbZvvQItYyWGk3Om-39" edge="1">
          <mxGeometry x="-0.0204" width="50" height="50" relative="1" as="geometry">
            <mxPoint x="394" y="-303" as="sourcePoint" />
            <mxPoint x="270.5" y="-5" as="targetPoint" />
            <mxPoint as="offset" />
          </mxGeometry>
        </mxCell>
        <mxCell id="1rC0PbZvvQItYyWGk3Om-39" value="creazione" style="ellipse;whiteSpace=wrap;html=1;" parent="1" vertex="1">
          <mxGeometry x="280.5" y="-320" width="85.5" height="40" as="geometry" />
        </mxCell>
        <mxCell id="1rC0PbZvvQItYyWGk3Om-40" value="&amp;lt;&amp;lt;include&amp;gt;&amp;gt;" style="endArrow=classic;html=1;rounded=0;dashed=1;exitX=1;exitY=0;exitDx=0;exitDy=0;" parent="1" source="swfVaft4NcOQjdmXPARg-55" target="1rC0PbZvvQItYyWGk3Om-41" edge="1">
          <mxGeometry x="-0.0204" width="50" height="50" relative="1" as="geometry">
            <mxPoint x="413" y="-285" as="sourcePoint" />
            <mxPoint x="340" y="65" as="targetPoint" />
            <mxPoint as="offset" />
          </mxGeometry>
        </mxCell>
        <mxCell id="1rC0PbZvvQItYyWGk3Om-41" value="rimozione" style="ellipse;whiteSpace=wrap;html=1;" parent="1" vertex="1">
          <mxGeometry x="470" y="-320" width="85.5" height="40" as="geometry" />
        </mxCell>
        <mxCell id="1rC0PbZvvQItYyWGk3Om-42" value="&amp;lt;&amp;lt;include&amp;gt;&amp;gt;" style="endArrow=classic;html=1;rounded=0;dashed=1;exitX=0;exitY=0;exitDx=0;exitDy=0;" parent="1" source="1rC0PbZvvQItYyWGk3Om-34" target="1rC0PbZvvQItYyWGk3Om-43" edge="1">
          <mxGeometry x="-0.0204" width="50" height="50" relative="1" as="geometry">
            <mxPoint x="800" y="-313" as="sourcePoint" />
            <mxPoint x="676.5" y="-15" as="targetPoint" />
            <mxPoint as="offset" />
          </mxGeometry>
        </mxCell>
        <mxCell id="1rC0PbZvvQItYyWGk3Om-43" value="inserimento nome" style="ellipse;whiteSpace=wrap;html=1;" parent="1" vertex="1">
          <mxGeometry x="690" y="-380" width="85.5" height="40" as="geometry" />
        </mxCell>
        <mxCell id="1rC0PbZvvQItYyWGk3Om-44" value="&amp;lt;&amp;lt;include&amp;gt;&amp;gt;" style="endArrow=classic;html=1;rounded=0;dashed=1;exitX=0.702;exitY=0;exitDx=0;exitDy=0;exitPerimeter=0;" parent="1" source="1rC0PbZvvQItYyWGk3Om-34" target="1rC0PbZvvQItYyWGk3Om-45" edge="1">
          <mxGeometry x="-0.0204" width="50" height="50" relative="1" as="geometry">
            <mxPoint x="819" y="-295" as="sourcePoint" />
            <mxPoint x="746" y="55" as="targetPoint" />
            <mxPoint as="offset" />
          </mxGeometry>
        </mxCell>
        <mxCell id="1rC0PbZvvQItYyWGk3Om-45" value="inserimento numero porzioni" style="ellipse;whiteSpace=wrap;html=1;" parent="1" vertex="1">
          <mxGeometry x="785" y="-380" width="128.5" height="40" as="geometry" />
        </mxCell>
        <mxCell id="1rC0PbZvvQItYyWGk3Om-46" value="&amp;lt;&amp;lt;include&amp;gt;&amp;gt;" style="endArrow=classic;html=1;rounded=0;dashed=1;exitX=1;exitY=0.5;exitDx=0;exitDy=0;" parent="1" source="1rC0PbZvvQItYyWGk3Om-34" target="1rC0PbZvvQItYyWGk3Om-47" edge="1">
          <mxGeometry x="-0.0204" width="50" height="50" relative="1" as="geometry">
            <mxPoint x="864" y="-278" as="sourcePoint" />
            <mxPoint x="740" y="20" as="targetPoint" />
            <mxPoint as="offset" />
          </mxGeometry>
        </mxCell>
        <mxCell id="1rC0PbZvvQItYyWGk3Om-47" value="inserimento ingredienti" style="ellipse;whiteSpace=wrap;html=1;" parent="1" vertex="1">
          <mxGeometry x="974.5" y="-330" width="85.5" height="40" as="geometry" />
        </mxCell>
        <mxCell id="1rC0PbZvvQItYyWGk3Om-48" value="&amp;lt;&amp;lt;include&amp;gt;&amp;gt;" style="endArrow=classic;html=1;rounded=0;dashed=1;exitX=1;exitY=1;exitDx=0;exitDy=0;entryX=0;entryY=0.5;entryDx=0;entryDy=0;" parent="1" source="1rC0PbZvvQItYyWGk3Om-34" target="1rC0PbZvvQItYyWGk3Om-94" edge="1">
          <mxGeometry x="-0.0164" width="50" height="50" relative="1" as="geometry">
            <mxPoint x="828" y="-270" as="sourcePoint" />
            <mxPoint x="900.5825420872509" y="-239.9326510409769" as="targetPoint" />
            <mxPoint as="offset" />
          </mxGeometry>
        </mxCell>
        <mxCell id="1rC0PbZvvQItYyWGk3Om-50" value="&amp;lt;&amp;lt;include&amp;gt;&amp;gt;" style="endArrow=classic;html=1;rounded=0;dashed=1;exitX=1;exitY=0;exitDx=0;exitDy=0;" parent="1" source="1rC0PbZvvQItYyWGk3Om-34" target="1rC0PbZvvQItYyWGk3Om-51" edge="1">
          <mxGeometry x="-0.0204" width="50" height="50" relative="1" as="geometry">
            <mxPoint x="850" y="-148" as="sourcePoint" />
            <mxPoint x="726.5" y="150" as="targetPoint" />
            <mxPoint as="offset" />
          </mxGeometry>
        </mxCell>
        <mxCell id="1rC0PbZvvQItYyWGk3Om-51" value="inserimento periodo di validità" style="ellipse;whiteSpace=wrap;html=1;" parent="1" vertex="1">
          <mxGeometry x="960.5" y="-400" width="87.75" height="60" as="geometry" />
        </mxCell>
        <mxCell id="1rC0PbZvvQItYyWGk3Om-52" value="&amp;lt;&amp;lt;include&amp;gt;&amp;gt;" style="endArrow=classic;html=1;rounded=0;dashed=1;exitX=1;exitY=0.5;exitDx=0;exitDy=0;" parent="1" source="1rC0PbZvvQItYyWGk3Om-37" target="1rC0PbZvvQItYyWGk3Om-53" edge="1">
          <mxGeometry x="-0.0204" width="50" height="50" relative="1" as="geometry">
            <mxPoint x="869" y="-130" as="sourcePoint" />
            <mxPoint x="796" y="220" as="targetPoint" />
            <mxPoint as="offset" />
          </mxGeometry>
        </mxCell>
        <mxCell id="1rC0PbZvvQItYyWGk3Om-53" value="inserimento nome ricetta da rimuovere" style="ellipse;whiteSpace=wrap;html=1;" parent="1" vertex="1">
          <mxGeometry x="980" y="-210" width="130" height="40" as="geometry" />
        </mxCell>
        <mxCell id="1rC0PbZvvQItYyWGk3Om-55" value="&amp;lt;&amp;lt;include&amp;gt;&amp;gt;" style="endArrow=classic;html=1;rounded=0;dashed=1;exitX=0.661;exitY=0.05;exitDx=0;exitDy=0;exitPerimeter=0;" parent="1" source="1rC0PbZvvQItYyWGk3Om-39" target="1rC0PbZvvQItYyWGk3Om-56" edge="1">
          <mxGeometry x="-0.0204" width="50" height="50" relative="1" as="geometry">
            <mxPoint x="110" y="-245" as="sourcePoint" />
            <mxPoint x="65.5" y="-15" as="targetPoint" />
            <mxPoint as="offset" />
          </mxGeometry>
        </mxCell>
        <mxCell id="1rC0PbZvvQItYyWGk3Om-56" value="inserimento nome menù tematico" style="ellipse;whiteSpace=wrap;html=1;" parent="1" vertex="1">
          <mxGeometry x="340" y="-420" width="90" height="50" as="geometry" />
        </mxCell>
        <mxCell id="1rC0PbZvvQItYyWGk3Om-57" value="&amp;lt;&amp;lt;include&amp;gt;&amp;gt;" style="endArrow=classic;html=1;rounded=0;dashed=1;exitX=1;exitY=0;exitDx=0;exitDy=0;" parent="1" source="1rC0PbZvvQItYyWGk3Om-39" target="1rC0PbZvvQItYyWGk3Om-58" edge="1">
          <mxGeometry x="-0.0137" width="50" height="50" relative="1" as="geometry">
            <mxPoint x="208" y="-295" as="sourcePoint" />
            <mxPoint x="135" y="55" as="targetPoint" />
            <mxPoint as="offset" />
          </mxGeometry>
        </mxCell>
        <mxCell id="1rC0PbZvvQItYyWGk3Om-58" value="inserimento nome" style="ellipse;whiteSpace=wrap;html=1;" parent="1" vertex="1">
          <mxGeometry x="414" y="-370" width="85.5" height="40" as="geometry" />
        </mxCell>
        <mxCell id="1rC0PbZvvQItYyWGk3Om-59" value="&amp;lt;&amp;lt;include&amp;gt;&amp;gt;" style="endArrow=classic;html=1;rounded=0;dashed=1;exitX=1;exitY=0;exitDx=0;exitDy=0;" parent="1" source="1rC0PbZvvQItYyWGk3Om-41" target="1rC0PbZvvQItYyWGk3Om-60" edge="1">
          <mxGeometry x="-0.0137" width="50" height="50" relative="1" as="geometry">
            <mxPoint x="546.75" y="-290" as="sourcePoint" />
            <mxPoint x="328.75" y="79" as="targetPoint" />
            <mxPoint as="offset" />
          </mxGeometry>
        </mxCell>
        <mxCell id="1rC0PbZvvQItYyWGk3Om-60" value="inserimento nome menù da rimuovere" style="ellipse;whiteSpace=wrap;html=1;" parent="1" vertex="1">
          <mxGeometry x="577.25" y="-405" width="85.5" height="50" as="geometry" />
        </mxCell>
        <mxCell id="1rC0PbZvvQItYyWGk3Om-61" value="&amp;lt;&amp;lt;include&amp;gt;&amp;gt;" style="endArrow=classic;html=1;rounded=0;dashed=1;exitX=0.404;exitY=0;exitDx=0;exitDy=0;exitPerimeter=0;" parent="1" source="1rC0PbZvvQItYyWGk3Om-39" target="1rC0PbZvvQItYyWGk3Om-62" edge="1">
          <mxGeometry x="-0.0137" width="50" height="50" relative="1" as="geometry">
            <mxPoint x="120" y="-370" as="sourcePoint" />
            <mxPoint x="-48.25" y="25" as="targetPoint" />
            <mxPoint as="offset" />
          </mxGeometry>
        </mxCell>
        <mxCell id="1rC0PbZvvQItYyWGk3Om-62" value="inserimento periodo di validità" style="ellipse;whiteSpace=wrap;html=1;" parent="1" vertex="1">
          <mxGeometry x="239.5" y="-405" width="85.5" height="60" as="geometry" />
        </mxCell>
        <mxCell id="1rC0PbZvvQItYyWGk3Om-63" value="&amp;lt;&amp;lt;include&amp;gt;&amp;gt;" style="endArrow=classic;html=1;rounded=0;dashed=1;exitX=0;exitY=1;exitDx=0;exitDy=0;" parent="1" source="1rC0PbZvvQItYyWGk3Om-39" target="1rC0PbZvvQItYyWGk3Om-64" edge="1">
          <mxGeometry x="-0.0209" width="50" height="50" relative="1" as="geometry">
            <mxPoint x="150" y="-210" as="sourcePoint" />
            <mxPoint x="-68" y="159" as="targetPoint" />
            <mxPoint as="offset" />
          </mxGeometry>
        </mxCell>
        <mxCell id="1rC0PbZvvQItYyWGk3Om-64" value="inserimento/rimozione piatti nel menù alla carta" style="ellipse;whiteSpace=wrap;html=1;" parent="1" vertex="1">
          <mxGeometry x="170" y="-220" width="145" height="70" as="geometry" />
        </mxCell>
        <mxCell id="1rC0PbZvvQItYyWGk3Om-65" value="&amp;lt;&amp;lt;include&amp;gt;&amp;gt;" style="endArrow=classic;html=1;rounded=0;dashed=1;exitX=0;exitY=0.5;exitDx=0;exitDy=0;" parent="1" source="1rC0PbZvvQItYyWGk3Om-39" target="1rC0PbZvvQItYyWGk3Om-66" edge="1">
          <mxGeometry x="-0.0137" width="50" height="50" relative="1" as="geometry">
            <mxPoint x="393" y="-274" as="sourcePoint" />
            <mxPoint x="175" y="95" as="targetPoint" />
            <mxPoint as="offset" />
          </mxGeometry>
        </mxCell>
        <mxCell id="1rC0PbZvvQItYyWGk3Om-66" value="inserimento piatti" style="ellipse;whiteSpace=wrap;html=1;" parent="1" vertex="1">
          <mxGeometry x="150" y="-360" width="85.5" height="40" as="geometry" />
        </mxCell>
        <mxCell id="1rC0PbZvvQItYyWGk3Om-70" value="&amp;lt;&amp;lt;include&amp;gt;&amp;gt;" style="endArrow=classic;html=1;rounded=0;dashed=1;exitX=1;exitY=1;exitDx=0;exitDy=0;" parent="1" source="1rC0PbZvvQItYyWGk3Om-73" target="1rC0PbZvvQItYyWGk3Om-71" edge="1">
          <mxGeometry x="-0.018" width="50" height="50" relative="1" as="geometry">
            <mxPoint x="659" y="-10" as="sourcePoint" />
            <mxPoint x="440.5" y="359" as="targetPoint" />
            <mxPoint as="offset" />
          </mxGeometry>
        </mxCell>
        <mxCell id="1rC0PbZvvQItYyWGk3Om-71" value="inserimento nome" style="ellipse;whiteSpace=wrap;html=1;" parent="1" vertex="1">
          <mxGeometry x="997.25" y="-90" width="85.5" height="40" as="geometry" />
        </mxCell>
        <mxCell id="1rC0PbZvvQItYyWGk3Om-72" value="&amp;lt;&amp;lt;include&amp;gt;&amp;gt;" style="endArrow=classic;html=1;rounded=0;dashed=1;exitX=0.923;exitY=0.25;exitDx=0;exitDy=0;exitPerimeter=0;" parent="1" source="swfVaft4NcOQjdmXPARg-15" target="1rC0PbZvvQItYyWGk3Om-73" edge="1">
          <mxGeometry x="-0.0251" width="50" height="50" relative="1" as="geometry">
            <mxPoint x="710" y="-90" as="sourcePoint" />
            <mxPoint x="770" y="325" as="targetPoint" />
            <mxPoint as="offset" />
          </mxGeometry>
        </mxCell>
        <mxCell id="1rC0PbZvvQItYyWGk3Om-73" value="creazione" style="ellipse;whiteSpace=wrap;html=1;" parent="1" vertex="1">
          <mxGeometry x="806.5" y="-125" width="85.5" height="40" as="geometry" />
        </mxCell>
        <mxCell id="1rC0PbZvvQItYyWGk3Om-74" value="&amp;lt;&amp;lt;include&amp;gt;&amp;gt;" style="endArrow=classic;html=1;rounded=0;dashed=1;exitX=0.946;exitY=0.725;exitDx=0;exitDy=0;exitPerimeter=0;" parent="1" source="swfVaft4NcOQjdmXPARg-15" target="1rC0PbZvvQItYyWGk3Om-75" edge="1">
          <mxGeometry x="-0.0204" width="50" height="50" relative="1" as="geometry">
            <mxPoint x="920.5" y="75" as="sourcePoint" />
            <mxPoint x="839.5" y="395" as="targetPoint" />
            <mxPoint as="offset" />
          </mxGeometry>
        </mxCell>
        <mxCell id="1rC0PbZvvQItYyWGk3Om-75" value="rimozione" style="ellipse;whiteSpace=wrap;html=1;" parent="1" vertex="1">
          <mxGeometry x="806.5" y="-70" width="85.5" height="40" as="geometry" />
        </mxCell>
        <mxCell id="1rC0PbZvvQItYyWGk3Om-76" value="&amp;lt;&amp;lt;include&amp;gt;&amp;gt;" style="endArrow=classic;html=1;rounded=0;dashed=1;" parent="1" target="1rC0PbZvvQItYyWGk3Om-77" edge="1">
          <mxGeometry x="-0.0137" width="50" height="50" relative="1" as="geometry">
            <mxPoint x="890" y="-40" as="sourcePoint" />
            <mxPoint x="617.5" y="579" as="targetPoint" />
            <mxPoint as="offset" />
          </mxGeometry>
        </mxCell>
        <mxCell id="1rC0PbZvvQItYyWGk3Om-77" value="inserimento nome bevanda da rimuovere" style="ellipse;whiteSpace=wrap;html=1;" parent="1" vertex="1">
          <mxGeometry x="1027.5" y="-40" width="146" height="40" as="geometry" />
        </mxCell>
        <mxCell id="1rC0PbZvvQItYyWGk3Om-80" value="&amp;lt;&amp;lt;include&amp;gt;&amp;gt;" style="endArrow=classic;html=1;rounded=0;dashed=1;exitX=1;exitY=0;exitDx=0;exitDy=0;" parent="1" source="1rC0PbZvvQItYyWGk3Om-85" target="1rC0PbZvvQItYyWGk3Om-81" edge="1">
          <mxGeometry x="-0.0081" width="50" height="50" relative="1" as="geometry">
            <mxPoint x="500.75" y="430" as="sourcePoint" />
            <mxPoint x="550.75" y="380" as="targetPoint" />
            <mxPoint as="offset" />
          </mxGeometry>
        </mxCell>
        <mxCell id="1rC0PbZvvQItYyWGk3Om-81" value="inserimento consumo&lt;br&gt;pro capite&amp;nbsp;genere (alimentari) extra (in ettogrammi)" style="ellipse;whiteSpace=wrap;html=1;" parent="1" vertex="1">
          <mxGeometry x="666.25" y="-10" width="173" height="60" as="geometry" />
        </mxCell>
        <mxCell id="1rC0PbZvvQItYyWGk3Om-82" value="&amp;lt;&amp;lt;include&amp;gt;&amp;gt;" style="endArrow=classic;html=1;rounded=0;dashed=1;exitX=1;exitY=1;exitDx=0;exitDy=0;" parent="1" source="1rC0PbZvvQItYyWGk3Om-85" target="1rC0PbZvvQItYyWGk3Om-83" edge="1">
          <mxGeometry x="-0.018" width="50" height="50" relative="1" as="geometry">
            <mxPoint x="749.75" y="180" as="sourcePoint" />
            <mxPoint x="531.25" y="549" as="targetPoint" />
            <mxPoint as="offset" />
          </mxGeometry>
        </mxCell>
        <mxCell id="1rC0PbZvvQItYyWGk3Om-83" value="inserimento nome" style="ellipse;whiteSpace=wrap;html=1;" parent="1" vertex="1">
          <mxGeometry x="710" y="75" width="85.5" height="40" as="geometry" />
        </mxCell>
        <mxCell id="1rC0PbZvvQItYyWGk3Om-84" value="&amp;lt;&amp;lt;include&amp;gt;&amp;gt;" style="endArrow=classic;html=1;rounded=0;dashed=1;exitX=1;exitY=0.5;exitDx=0;exitDy=0;" parent="1" source="swfVaft4NcOQjdmXPARg-17" target="1rC0PbZvvQItYyWGk3Om-85" edge="1">
          <mxGeometry x="-0.025" width="50" height="50" relative="1" as="geometry">
            <mxPoint x="790.75" y="90" as="sourcePoint" />
            <mxPoint x="860.75" y="515" as="targetPoint" />
            <mxPoint as="offset" />
          </mxGeometry>
        </mxCell>
        <mxCell id="1rC0PbZvvQItYyWGk3Om-85" value="creazione" style="ellipse;whiteSpace=wrap;html=1;" parent="1" vertex="1">
          <mxGeometry x="491.75" y="35" width="85.5" height="40" as="geometry" />
        </mxCell>
        <mxCell id="1rC0PbZvvQItYyWGk3Om-86" value="&amp;lt;&amp;lt;include&amp;gt;&amp;gt;" style="endArrow=classic;html=1;rounded=0;dashed=1;exitX=0.5;exitY=1;exitDx=0;exitDy=0;" parent="1" source="swfVaft4NcOQjdmXPARg-17" target="1rC0PbZvvQItYyWGk3Om-87" edge="1">
          <mxGeometry x="-0.0204" width="50" height="50" relative="1" as="geometry">
            <mxPoint x="793.75" y="109" as="sourcePoint" />
            <mxPoint x="930.25" y="585" as="targetPoint" />
            <mxPoint as="offset" />
          </mxGeometry>
        </mxCell>
        <mxCell id="1rC0PbZvvQItYyWGk3Om-87" value="rimozione" style="ellipse;whiteSpace=wrap;html=1;" parent="1" vertex="1">
          <mxGeometry x="267.25" y="120" width="85.5" height="40" as="geometry" />
        </mxCell>
        <mxCell id="1rC0PbZvvQItYyWGk3Om-88" value="&amp;lt;&amp;lt;include&amp;gt;&amp;gt;" style="endArrow=classic;html=1;rounded=0;dashed=1;" parent="1" target="1rC0PbZvvQItYyWGk3Om-89" edge="1">
          <mxGeometry x="-0.0137" width="50" height="50" relative="1" as="geometry">
            <mxPoint x="351" y="140" as="sourcePoint" />
            <mxPoint x="708.25" y="769" as="targetPoint" />
            <mxPoint as="offset" />
          </mxGeometry>
        </mxCell>
        <mxCell id="1rC0PbZvvQItYyWGk3Om-89" value="inserimento nome&amp;nbsp;genere (alimentari) extra&amp;nbsp;da rimuovere" style="ellipse;whiteSpace=wrap;html=1;" parent="1" vertex="1">
          <mxGeometry x="470" y="110" width="198.5" height="60" as="geometry" />
        </mxCell>
        <mxCell id="1rC0PbZvvQItYyWGk3Om-90" value="" style="endArrow=classic;html=1;rounded=0;dashed=1;exitX=1;exitY=0.5;exitDx=0;exitDy=0;" parent="1" source="1rC0PbZvvQItYyWGk3Om-94" target="1rC0PbZvvQItYyWGk3Om-92" edge="1">
          <mxGeometry width="50" height="50" relative="1" as="geometry">
            <mxPoint x="990" y="-410" as="sourcePoint" />
            <mxPoint x="1110" y="-210" as="targetPoint" />
          </mxGeometry>
        </mxCell>
        <mxCell id="1rC0PbZvvQItYyWGk3Om-91" value="&amp;lt;&amp;lt;include&amp;gt;&amp;gt;" style="edgeLabel;html=1;align=center;verticalAlign=middle;resizable=0;points=[];" parent="1rC0PbZvvQItYyWGk3Om-90" vertex="1" connectable="0">
          <mxGeometry x="-0.0918" y="2" relative="1" as="geometry">
            <mxPoint as="offset" />
          </mxGeometry>
        </mxCell>
        <mxCell id="1rC0PbZvvQItYyWGk3Om-92" value="associazione corrispondenza&lt;br&gt;piatto-ricetta" style="ellipse;whiteSpace=wrap;html=1;" parent="1" vertex="1">
          <mxGeometry x="1070" y="-275" width="135" height="50" as="geometry" />
        </mxCell>
        <mxCell id="1rC0PbZvvQItYyWGk3Om-93" value="inserimento carico di lavoro della ricetta" style="ellipse;whiteSpace=wrap;html=1;" parent="1" vertex="1">
          <mxGeometry x="550" y="-250" width="130" height="40" as="geometry" />
        </mxCell>
        <mxCell id="1rC0PbZvvQItYyWGk3Om-94" value="inserimento nome" style="ellipse;whiteSpace=wrap;html=1;" parent="1" vertex="1">
          <mxGeometry x="894.5" y="-270" width="85.5" height="40" as="geometry" />
        </mxCell>
        <mxCell id="1rC0PbZvvQItYyWGk3Om-97" value="&amp;lt;&amp;lt;include&amp;gt;&amp;gt;" style="endArrow=classic;html=1;rounded=0;dashed=1;exitX=0;exitY=0.5;exitDx=0;exitDy=0;entryX=1;entryY=0.5;entryDx=0;entryDy=0;" parent="1" source="1rC0PbZvvQItYyWGk3Om-34" target="1rC0PbZvvQItYyWGk3Om-93" edge="1">
          <mxGeometry x="-0.0204" width="50" height="50" relative="1" as="geometry">
            <mxPoint x="719" y="-173" as="sourcePoint" />
            <mxPoint x="779" y="-241" as="targetPoint" />
            <mxPoint as="offset" />
          </mxGeometry>
        </mxCell>
        <mxCell id="1rC0PbZvvQItYyWGk3Om-98" value="&lt;div style=&quot;&quot;&gt;&lt;span style=&quot;background-color: initial;&quot;&gt;Ogni informazione settata dal gestore è salvata in un file di formato XML.&lt;/span&gt;&lt;/div&gt;&lt;div style=&quot;&quot;&gt;&lt;span style=&quot;background-color: initial;&quot;&gt;Il gestore è l&#39;utente che deve lavorare per primo, settando le informazioni per il giorno lavorativo successivo.&lt;/span&gt;&lt;/div&gt;" style="shape=note2;boundedLbl=1;whiteSpace=wrap;html=1;size=25;verticalAlign=top;align=center;" parent="1" vertex="1">
          <mxGeometry x="1110" y="-430" width="220" height="120" as="geometry" />
        </mxCell>
        <mxCell id="saplZ6QqP0PTpomzvv3P-34" value="" style="edgeStyle=none;rounded=0;orthogonalLoop=1;jettySize=auto;html=1;endArrow=none;endFill=0;exitX=1;exitY=0.3333333333333333;exitDx=0;exitDy=0;exitPerimeter=0;" parent="1" source="saplZ6QqP0PTpomzvv3P-36" target="saplZ6QqP0PTpomzvv3P-48" edge="1">
          <mxGeometry relative="1" as="geometry" />
        </mxCell>
        <mxCell id="saplZ6QqP0PTpomzvv3P-35" value="" style="edgeStyle=none;rounded=0;orthogonalLoop=1;jettySize=auto;html=1;endArrow=none;endFill=0;startArrow=none;startFill=0;" parent="1" target="saplZ6QqP0PTpomzvv3P-50" edge="1">
          <mxGeometry relative="1" as="geometry">
            <mxPoint x="100" y="1310" as="sourcePoint" />
          </mxGeometry>
        </mxCell>
        <mxCell id="saplZ6QqP0PTpomzvv3P-36" value="Actor/Magazziniere" style="shape=umlActor;verticalLabelPosition=bottom;verticalAlign=top;html=1;outlineConnect=0;" parent="1" vertex="1">
          <mxGeometry x="70" y="1290" width="30" height="60" as="geometry" />
        </mxCell>
        <mxCell id="saplZ6QqP0PTpomzvv3P-39" value="&amp;lt;&amp;lt;include&amp;gt;&amp;gt;" style="edgeStyle=none;rounded=0;orthogonalLoop=1;jettySize=auto;html=1;dashed=1;endArrow=classic;endFill=1;" parent="1" source="saplZ6QqP0PTpomzvv3P-42" target="saplZ6QqP0PTpomzvv3P-45" edge="1">
          <mxGeometry relative="1" as="geometry" />
        </mxCell>
        <mxCell id="saplZ6QqP0PTpomzvv3P-42" value="stampa lista della spesa" style="ellipse;whiteSpace=wrap;html=1;verticalAlign=middle;" parent="1" vertex="1">
          <mxGeometry x="457.25" y="1210" width="120" height="60" as="geometry" />
        </mxCell>
        <mxCell id="saplZ6QqP0PTpomzvv3P-45" value="richiesta di conferma&lt;br&gt;di acquisto" style="ellipse;whiteSpace=wrap;html=1;verticalAlign=middle;" parent="1" vertex="1">
          <mxGeometry x="692.75" y="1160" width="120" height="60" as="geometry" />
        </mxCell>
        <mxCell id="saplZ6QqP0PTpomzvv3P-47" value="&amp;lt;&amp;lt;include&amp;gt;&amp;gt;" style="edgeStyle=none;rounded=0;orthogonalLoop=1;jettySize=auto;html=1;exitX=1;exitY=0.5;exitDx=0;exitDy=0;entryX=0;entryY=0.5;entryDx=0;entryDy=0;endArrow=classic;endFill=1;dashed=1;" parent="1" source="saplZ6QqP0PTpomzvv3P-48" target="saplZ6QqP0PTpomzvv3P-42" edge="1">
          <mxGeometry relative="1" as="geometry" />
        </mxCell>
        <mxCell id="saplZ6QqP0PTpomzvv3P-48" value="lista della spesa" style="ellipse;whiteSpace=wrap;html=1;verticalAlign=middle;" parent="1" vertex="1">
          <mxGeometry x="228" y="1240" width="120" height="60" as="geometry" />
        </mxCell>
        <mxCell id="saplZ6QqP0PTpomzvv3P-50" value="visualizza magazzino" style="ellipse;whiteSpace=wrap;html=1;verticalAlign=middle;" parent="1" vertex="1">
          <mxGeometry x="232.75" y="1140" width="120" height="60" as="geometry" />
        </mxCell>
        <mxCell id="saplZ6QqP0PTpomzvv3P-51" value="&amp;lt;&amp;lt;include&amp;gt;&amp;gt;" style="rounded=0;orthogonalLoop=1;jettySize=auto;endArrow=classic;endFill=1;dashed=1;html=1;entryX=0;entryY=0.5;entryDx=0;entryDy=0;exitX=1;exitY=0;exitDx=0;exitDy=0;" parent="1" source="saplZ6QqP0PTpomzvv3P-50" target="saplZ6QqP0PTpomzvv3P-52" edge="1">
          <mxGeometry relative="1" as="geometry">
            <mxPoint x="284.5" y="1152" as="sourcePoint" />
            <mxPoint x="331.5" y="1060" as="targetPoint" />
          </mxGeometry>
        </mxCell>
        <mxCell id="saplZ6QqP0PTpomzvv3P-52" value="stampa ingredienti&lt;br&gt;in magazzino" style="ellipse;whiteSpace=wrap;html=1;" parent="1" vertex="1">
          <mxGeometry x="420" y="1090" width="120" height="60" as="geometry" />
        </mxCell>
        <mxCell id="saplZ6QqP0PTpomzvv3P-53" value="utilizza ingrediente" style="ellipse;whiteSpace=wrap;html=1;verticalAlign=middle;" parent="1" vertex="1">
          <mxGeometry x="228" y="1340" width="120" height="60" as="geometry" />
        </mxCell>
        <mxCell id="saplZ6QqP0PTpomzvv3P-55" value="" style="edgeStyle=none;rounded=0;orthogonalLoop=1;jettySize=auto;html=1;endArrow=none;endFill=0;exitX=1;exitY=0.3333333333333333;exitDx=0;exitDy=0;exitPerimeter=0;entryX=0;entryY=0.5;entryDx=0;entryDy=0;" parent="1" source="saplZ6QqP0PTpomzvv3P-36" target="saplZ6QqP0PTpomzvv3P-53" edge="1">
          <mxGeometry relative="1" as="geometry">
            <mxPoint x="110" y="1320" as="sourcePoint" />
            <mxPoint x="238" y="1320" as="targetPoint" />
          </mxGeometry>
        </mxCell>
        <mxCell id="saplZ6QqP0PTpomzvv3P-56" value="&amp;lt;&amp;lt;include&amp;gt;&amp;gt;" style="edgeStyle=none;rounded=0;orthogonalLoop=1;jettySize=auto;html=1;exitX=1;exitY=0.5;exitDx=0;exitDy=0;endArrow=classic;endFill=1;dashed=1;entryX=0;entryY=0.5;entryDx=0;entryDy=0;" parent="1" source="saplZ6QqP0PTpomzvv3P-53" target="saplZ6QqP0PTpomzvv3P-57" edge="1">
          <mxGeometry x="0.003" relative="1" as="geometry">
            <mxPoint x="358" y="1320" as="sourcePoint" />
            <mxPoint x="470" y="1330" as="targetPoint" />
            <mxPoint as="offset" />
          </mxGeometry>
        </mxCell>
        <mxCell id="saplZ6QqP0PTpomzvv3P-57" value="inserimento nome ingrediente" style="ellipse;whiteSpace=wrap;html=1;verticalAlign=middle;" parent="1" vertex="1">
          <mxGeometry x="470" y="1320" width="120" height="60" as="geometry" />
        </mxCell>
        <mxCell id="saplZ6QqP0PTpomzvv3P-58" value="&amp;lt;&amp;lt;include&amp;gt;&amp;gt;" style="edgeStyle=none;rounded=0;orthogonalLoop=1;jettySize=auto;html=1;exitX=1;exitY=0.5;exitDx=0;exitDy=0;endArrow=classic;endFill=1;dashed=1;entryX=0;entryY=0.5;entryDx=0;entryDy=0;" parent="1" source="saplZ6QqP0PTpomzvv3P-57" target="saplZ6QqP0PTpomzvv3P-59" edge="1">
          <mxGeometry relative="1" as="geometry">
            <mxPoint x="581.75" y="1410" as="sourcePoint" />
            <mxPoint x="719.25" y="1330" as="targetPoint" />
          </mxGeometry>
        </mxCell>
        <mxCell id="saplZ6QqP0PTpomzvv3P-59" value="inserimento quantità da prelevare" style="ellipse;whiteSpace=wrap;html=1;verticalAlign=middle;" parent="1" vertex="1">
          <mxGeometry x="719.25" y="1290" width="120" height="60" as="geometry" />
        </mxCell>
        <mxCell id="saplZ6QqP0PTpomzvv3P-60" value="porta in magazzino" style="ellipse;whiteSpace=wrap;html=1;verticalAlign=middle;" parent="1" vertex="1">
          <mxGeometry x="228" y="1440" width="120" height="60" as="geometry" />
        </mxCell>
        <mxCell id="saplZ6QqP0PTpomzvv3P-61" value="" style="edgeStyle=none;rounded=0;orthogonalLoop=1;jettySize=auto;html=1;endArrow=none;endFill=0;exitX=1;exitY=0.3333333333333333;exitDx=0;exitDy=0;exitPerimeter=0;entryX=0;entryY=0.5;entryDx=0;entryDy=0;" parent="1" source="saplZ6QqP0PTpomzvv3P-36" target="saplZ6QqP0PTpomzvv3P-60" edge="1">
          <mxGeometry relative="1" as="geometry">
            <mxPoint x="100" y="1400" as="sourcePoint" />
            <mxPoint x="210" y="1450" as="targetPoint" />
          </mxGeometry>
        </mxCell>
        <mxCell id="saplZ6QqP0PTpomzvv3P-62" value="&amp;lt;&amp;lt;include&amp;gt;&amp;gt;" style="edgeStyle=none;rounded=0;orthogonalLoop=1;jettySize=auto;html=1;exitX=1;exitY=0.5;exitDx=0;exitDy=0;endArrow=classic;endFill=1;dashed=1;entryX=0;entryY=0.5;entryDx=0;entryDy=0;" parent="1" source="saplZ6QqP0PTpomzvv3P-60" target="saplZ6QqP0PTpomzvv3P-63" edge="1">
          <mxGeometry x="0.003" relative="1" as="geometry">
            <mxPoint x="370" y="1480" as="sourcePoint" />
            <mxPoint x="492" y="1440" as="targetPoint" />
            <mxPoint as="offset" />
          </mxGeometry>
        </mxCell>
        <mxCell id="saplZ6QqP0PTpomzvv3P-63" value="inserimento nome ingrediente" style="ellipse;whiteSpace=wrap;html=1;verticalAlign=middle;" parent="1" vertex="1">
          <mxGeometry x="470" y="1430" width="120" height="60" as="geometry" />
        </mxCell>
        <mxCell id="saplZ6QqP0PTpomzvv3P-64" value="&amp;lt;&amp;lt;include&amp;gt;&amp;gt;" style="edgeStyle=none;rounded=0;orthogonalLoop=1;jettySize=auto;html=1;exitX=1;exitY=0.5;exitDx=0;exitDy=0;endArrow=classic;endFill=1;dashed=1;entryX=0;entryY=0.5;entryDx=0;entryDy=0;" parent="1" source="saplZ6QqP0PTpomzvv3P-63" target="saplZ6QqP0PTpomzvv3P-65" edge="1">
          <mxGeometry relative="1" as="geometry">
            <mxPoint x="603.75" y="1520" as="sourcePoint" />
            <mxPoint x="741.25" y="1440" as="targetPoint" />
          </mxGeometry>
        </mxCell>
        <mxCell id="saplZ6QqP0PTpomzvv3P-65" value="inserimento quantità da inserire" style="ellipse;whiteSpace=wrap;html=1;verticalAlign=middle;" parent="1" vertex="1">
          <mxGeometry x="742" y="1410" width="120" height="60" as="geometry" />
        </mxCell>
        <mxCell id="saplZ6QqP0PTpomzvv3P-66" value="scarta prodotto" style="ellipse;whiteSpace=wrap;html=1;verticalAlign=middle;" parent="1" vertex="1">
          <mxGeometry x="236" y="1530" width="120" height="60" as="geometry" />
        </mxCell>
        <mxCell id="saplZ6QqP0PTpomzvv3P-67" value="&amp;lt;&amp;lt;include&amp;gt;&amp;gt;" style="edgeStyle=none;rounded=0;orthogonalLoop=1;jettySize=auto;html=1;exitX=1;exitY=0.5;exitDx=0;exitDy=0;endArrow=classic;endFill=1;dashed=1;entryX=0;entryY=0.5;entryDx=0;entryDy=0;" parent="1" source="saplZ6QqP0PTpomzvv3P-66" target="saplZ6QqP0PTpomzvv3P-68" edge="1">
          <mxGeometry x="0.003" relative="1" as="geometry">
            <mxPoint x="378" y="1570" as="sourcePoint" />
            <mxPoint x="500" y="1530" as="targetPoint" />
            <mxPoint as="offset" />
          </mxGeometry>
        </mxCell>
        <mxCell id="saplZ6QqP0PTpomzvv3P-68" value="inserimento nome ingrediente" style="ellipse;whiteSpace=wrap;html=1;verticalAlign=middle;" parent="1" vertex="1">
          <mxGeometry x="478" y="1520" width="120" height="60" as="geometry" />
        </mxCell>
        <mxCell id="saplZ6QqP0PTpomzvv3P-69" value="&amp;lt;&amp;lt;include&amp;gt;&amp;gt;" style="edgeStyle=none;rounded=0;orthogonalLoop=1;jettySize=auto;html=1;exitX=1;exitY=0.5;exitDx=0;exitDy=0;endArrow=classic;endFill=1;dashed=1;entryX=0;entryY=0.5;entryDx=0;entryDy=0;" parent="1" source="saplZ6QqP0PTpomzvv3P-68" target="saplZ6QqP0PTpomzvv3P-70" edge="1">
          <mxGeometry relative="1" as="geometry">
            <mxPoint x="611.75" y="1610" as="sourcePoint" />
            <mxPoint x="749.25" y="1530" as="targetPoint" />
          </mxGeometry>
        </mxCell>
        <mxCell id="saplZ6QqP0PTpomzvv3P-70" value="inserimento quantità da scartare" style="ellipse;whiteSpace=wrap;html=1;verticalAlign=middle;" parent="1" vertex="1">
          <mxGeometry x="750" y="1500" width="120" height="60" as="geometry" />
        </mxCell>
        <mxCell id="saplZ6QqP0PTpomzvv3P-71" value="" style="edgeStyle=none;rounded=0;orthogonalLoop=1;jettySize=auto;html=1;endArrow=none;endFill=0;exitX=1;exitY=0.3333333333333333;exitDx=0;exitDy=0;exitPerimeter=0;entryX=0;entryY=0.5;entryDx=0;entryDy=0;" parent="1" source="saplZ6QqP0PTpomzvv3P-36" target="saplZ6QqP0PTpomzvv3P-66" edge="1">
          <mxGeometry relative="1" as="geometry">
            <mxPoint x="100" y="1400" as="sourcePoint" />
            <mxPoint x="228" y="1560" as="targetPoint" />
          </mxGeometry>
        </mxCell>
      </root>
    </mxGraphModel>
  </diagram>
</mxfile>
